<svg width="221" height="121" viewBox="0 0 221 121" fill="none" xmlns="http://www.w3.org/2000/svg">
<path d="M14.6087 76.0771C12.4007 76.0771 10.4167 75.6931 8.65669 74.9251C6.92869 74.1251 5.56869 73.0371 4.57669 71.6611C3.58469 70.2531 3.07269 68.6371 3.04069 66.8131H7.69669C7.85669 68.3811 8.49669 69.7091 9.61669 70.7971C10.7687 71.8531 12.4327 72.3811 14.6087 72.3811C16.6887 72.3811 18.3207 71.8691 19.5047 70.8451C20.7207 69.7891 21.3287 68.4451 21.3287 66.8131C21.3287 65.5331 20.9767 64.4931 20.2727 63.6931C19.5687 62.8931 18.6887 62.2851 17.6327 61.8691C16.5767 61.4531 15.1527 61.0051 13.3607 60.5251C11.1527 59.9491 9.37669 59.3731 8.03269 58.7971C6.72069 58.2211 5.58469 57.3251 4.62469 56.1091C3.69669 54.8611 3.23269 53.1971 3.23269 51.1171C3.23269 49.2931 3.69669 47.6771 4.62469 46.2691C5.55269 44.8611 6.84869 43.7731 8.51269 43.0051C10.2087 42.2371 12.1447 41.8531 14.3207 41.8531C17.4567 41.8531 20.0167 42.6371 22.0007 44.2051C24.0167 45.7731 25.1527 47.8531 25.4087 50.4451H20.6087C20.4487 49.1651 19.7767 48.0451 18.5927 47.0851C17.4087 46.0931 15.8407 45.5971 13.8887 45.5971C12.0647 45.5971 10.5767 46.0771 9.42469 47.0371C8.27269 47.9651 7.69669 49.2771 7.69669 50.9731C7.69669 52.1891 8.03269 53.1811 8.70469 53.9491C9.40869 54.7171 10.2567 55.3091 11.2487 55.7251C12.2727 56.1091 13.6967 56.5571 15.5207 57.0691C17.7287 57.6771 19.5047 58.2851 20.8487 58.8931C22.1927 59.4691 23.3447 60.3811 24.3047 61.6291C25.2647 62.8451 25.7447 64.5091 25.7447 66.6211C25.7447 68.2531 25.3127 69.7891 24.4487 71.2291C23.5847 72.6691 22.3047 73.8371 20.6087 74.7331C18.9127 75.6291 16.9127 76.0771 14.6087 76.0771ZM36.5406 54.2851C37.4046 52.7811 38.6846 51.5331 40.3806 50.5411C42.1086 49.5171 44.1086 49.0051 46.3806 49.0051C48.7166 49.0051 50.8286 49.5651 52.7166 50.6851C54.6366 51.8051 56.1406 53.3891 57.2286 55.4371C58.3166 57.4531 58.8606 59.8051 58.8606 62.4931C58.8606 65.1491 58.3166 67.5171 57.2286 69.5971C56.1406 71.6771 54.6366 73.2931 52.7166 74.4451C50.8286 75.5971 48.7166 76.1731 46.3806 76.1731C44.1406 76.1731 42.1566 75.6771 40.4286 74.6851C38.7326 73.6611 37.4366 72.3971 36.5406 70.8931V88.2211H32.1726V49.4371H36.5406V54.2851ZM54.3966 62.4931C54.3966 60.5091 53.9966 58.7811 53.1966 57.3091C52.3966 55.8371 51.3086 54.7171 49.9326 53.9491C48.5886 53.1811 47.1006 52.7971 45.4686 52.7971C43.8686 52.7971 42.3806 53.1971 41.0046 53.9971C39.6606 54.7651 38.5726 55.9011 37.7406 57.4051C36.9406 58.8771 36.5406 60.5891 36.5406 62.5411C36.5406 64.5251 36.9406 66.2691 37.7406 67.7731C38.5726 69.2451 39.6606 70.3811 41.0046 71.1811C42.3806 71.9491 43.8686 72.3331 45.4686 72.3331C47.1006 72.3331 48.5886 71.9491 49.9326 71.1811C51.3086 70.3811 52.3966 69.2451 53.1966 67.7731C53.9966 66.2691 54.3966 64.5091 54.3966 62.4931ZM88.6101 61.5811C88.6101 62.4131 88.5621 63.2931 88.4661 64.2211H67.4421C67.6021 66.8131 68.4821 68.8451 70.0821 70.3171C71.7141 71.7571 73.6821 72.4771 75.9861 72.4771C77.8741 72.4771 79.4421 72.0451 80.6901 71.1811C81.9701 70.2851 82.8661 69.1011 83.3781 67.6291H88.0821C87.3781 70.1571 85.9701 72.2211 83.8581 73.8211C81.7461 75.3891 79.1221 76.1731 75.9861 76.1731C73.4901 76.1731 71.2501 75.6131 69.2661 74.4931C67.3141 73.3731 65.7781 71.7891 64.6581 69.7411C63.5381 67.6611 62.9781 65.2611 62.9781 62.5411C62.9781 59.8211 63.5221 57.4371 64.6101 55.3891C65.6981 53.3411 67.2181 51.7731 69.1701 50.6851C71.1541 49.5651 73.4261 49.0051 75.9861 49.0051C78.4821 49.0051 80.6901 49.5491 82.6101 50.6371C84.5301 51.7251 86.0021 53.2291 87.0261 55.1491C88.0821 57.0371 88.6101 59.1811 88.6101 61.5811ZM84.0981 60.6691C84.0981 59.0051 83.7301 57.5811 82.9941 56.3971C82.2581 55.1811 81.2501 54.2691 79.9701 53.6611C78.7221 53.0211 77.3301 52.7011 75.7941 52.7011C73.5861 52.7011 71.6981 53.4051 70.1301 54.8131C68.5941 56.2211 67.7141 58.1731 67.4901 60.6691H84.0981ZM118.376 61.5811C118.376 62.4131 118.328 63.2931 118.232 64.2211H97.2077C97.3677 66.8131 98.2477 68.8451 99.8477 70.3171C101.48 71.7571 103.448 72.4771 105.752 72.4771C107.64 72.4771 109.208 72.0451 110.456 71.1811C111.736 70.2851 112.632 69.1011 113.144 67.6291H117.848C117.144 70.1571 115.736 72.2211 113.624 73.8211C111.512 75.3891 108.888 76.1731 105.752 76.1731C103.256 76.1731 101.016 75.6131 99.0317 74.4931C97.0797 73.3731 95.5437 71.7891 94.4237 69.7411C93.3037 67.6611 92.7437 65.2611 92.7437 62.5411C92.7437 59.8211 93.2877 57.4371 94.3757 55.3891C95.4637 53.3411 96.9837 51.7731 98.9357 50.6851C100.92 49.5651 103.192 49.0051 105.752 49.0051C108.248 49.0051 110.456 49.5491 112.376 50.6371C114.296 51.7251 115.768 53.2291 116.792 55.1491C117.848 57.0371 118.376 59.1811 118.376 61.5811ZM113.864 60.6691C113.864 59.0051 113.496 57.5811 112.76 56.3971C112.024 55.1811 111.016 54.2691 109.736 53.6611C108.488 53.0211 107.096 52.7011 105.56 52.7011C103.352 52.7011 101.464 53.4051 99.8957 54.8131C98.3597 56.2211 97.4797 58.1731 97.2557 60.6691H113.864ZM122.509 62.4931C122.509 59.8051 123.053 57.4531 124.141 55.4371C125.229 53.3891 126.717 51.8051 128.605 50.6851C130.525 49.5651 132.669 49.0051 135.037 49.0051C137.085 49.0051 138.989 49.4851 140.749 50.4451C142.509 51.3731 143.853 52.6051 144.781 54.1411V40.2211H149.197V75.7411H144.781V70.7971C143.917 72.3651 142.637 73.6611 140.941 74.6851C139.245 75.6771 137.261 76.1731 134.989 76.1731C132.653 76.1731 130.525 75.5971 128.605 74.4451C126.717 73.2931 125.229 71.6771 124.141 69.5971C123.053 67.5171 122.509 65.1491 122.509 62.4931ZM144.781 62.5411C144.781 60.5571 144.381 58.8291 143.581 57.3571C142.781 55.8851 141.693 54.7651 140.317 53.9971C138.973 53.1971 137.485 52.7971 135.853 52.7971C134.221 52.7971 132.733 53.1811 131.389 53.9491C130.045 54.7171 128.973 55.8371 128.173 57.3091C127.373 58.7811 126.973 60.5091 126.973 62.4931C126.973 64.5091 127.373 66.2691 128.173 67.7731C128.973 69.2451 130.045 70.3811 131.389 71.1811C132.733 71.9491 134.221 72.3331 135.853 72.3331C137.485 72.3331 138.973 71.9491 140.317 71.1811C141.693 70.3811 142.781 69.2451 143.581 67.7731C144.381 66.2691 144.781 64.5251 144.781 62.5411Z" fill="white"/>
<path d="M170.259 59.0371L180.531 75.7411H175.587L167.571 62.6851L159.939 75.7411H155.091L165.315 59.0371L155.043 42.2851H159.939L168.003 55.3891L175.683 42.2851H180.579L170.259 59.0371Z" fill="#B3DD62"/>
<path d="M200.725 101.429L198.97 99.6484L198.97 99.6484L200.725 101.429ZM119.079 97.6621C118.11 96.6788 116.527 96.6674 115.544 97.6367C114.56 98.606 114.549 100.189 115.518 101.172L119.079 97.6621ZM197.778 15.9847L199.373 14.0592L199.373 14.0592L197.778 15.9847ZM112.913 23.6097C112.033 24.6731 112.181 26.2491 113.244 27.1297C114.308 28.0103 115.884 27.8621 116.764 26.7987L112.913 23.6097ZM198.97 99.6484C177.198 121.111 141.429 120.335 119.079 97.6621L115.518 101.172C139.694 125.697 178.628 126.722 202.48 103.209L198.97 99.6484ZM198.128 19.7372C220.478 42.41 220.742 78.1857 198.97 99.6484L202.48 103.209C226.332 79.6966 225.864 40.7517 201.689 16.2271L198.128 19.7372ZM196.184 17.9102C219.734 37.4118 222.523 71.995 202.22 96.5128L206.071 99.7019C228.038 73.1754 225.166 35.4184 199.373 14.0592L196.184 17.9102ZM116.764 26.7987C137.07 2.2779 172.637 -1.58904 196.184 17.9102L199.373 14.0592C173.577 -7.30232 134.877 -2.91386 112.913 23.6097L116.764 26.7987Z" fill="#B3DD62"/>
</svg>
